<svg height="14" viewBox="0 0 20 14" width="20" xmlns="http://www.w3.org/2000/svg"><path d="m367 62c.432432-1.1643836.837838-2.3972603 1.351351-3.7328767.270271-.6164384.621622-1.1986301 1.18919-1.2671233h8.891891c.594595.0684932.918919.6506849 1.216217 1.2671233.513513 1.3356164.918919 2.5684931 1.351351 3.7328767zm2.731355-6c-.907365 0-1.477708.3238434-2.229524 1.3451957l-1.27031 2.7402136h-1.944352c-.285172 0-.829591 1.5195729 1.192536 1.569395l-.674042 1.594306c0 1.9928826.025924 4.0106762.025924 6.0035587 0 .4234876.337021.747331.777741.747331h2.618394c.44072 0 .777741-.3238434.777741-.747331v-1.6690391h9.981008v1.6690391c0 .4234876.362945.747331.777741.747331h2.644318c.44072 0 .777741-.3238434.777741-.747331 0-1.9928825.025925-4.0106761.025925-6.0035587l-.699967-1.594306c2.048051-.0498221 1.477708-1.569395 1.192536-1.569395h-1.944352l-1.244385-2.7402136c-.777741-1.0213523-1.32216-1.3451957-2.255449-1.3451957zm10.768645 7c-.826531 0-1.5.6734694-1.5 1.5s.673469 1.5 1.5 1.5 1.5-.6734694 1.5-1.5-.673469-1.5-1.5-1.5zm-13 0c.826531 0 1.5.6734694 1.5 1.5s-.673469 1.5-1.5 1.5-1.5-.6734694-1.5-1.5.673469-1.5 1.5-1.5z" fill="#1e2657" fill-rule="evenodd" transform="translate(-364 -56)"/></svg>