<svg height="26" viewBox="0 0 21 26" width="21" xmlns="http://www.w3.org/2000/svg"><g style="fill:none;fill-rule:evenodd;stroke:#1e2657;stroke-linecap:round;stroke-linejoin:round;stroke-width:1.579" transform="translate(1 1)"><path d="m18.9473684 19.1052632-4.4663158 4.4663157-2.6242105-3.368421c-.7326316-.9431579-.6494737-2.2852632.1957895-3.1294737l.3926316-.3926316c.8452631-.8442105 2.1852631-.9273684 3.128421-.1947368z"/><path d="m12.248 16.873-7.375-7.376"/><path d="m3.94736842.15789474c1.74421053 0 3.15789474 1.41368421 3.15789474 3.15789473 0 1.74421053-1.41368421 3.15789474-3.15789474 3.15789474s-3.15789474-1.41368421-3.15789474-3.15789474c0-1.74421052 1.41368421-3.15789473 3.15789474-3.15789473zm-2.36842105 8.31789473c-.97684211.56421053-1.57894737 1.60631583-1.57894737 2.73473683v4.7368421c0 .871579.70736842 1.5789474 1.57894737 1.5789474v3.9473684c0 1.3084211 1.06 2.3684211 2.36842105 2.3684211s2.36842105-1.06 2.36842105-2.3684211v-3.9473684c.87157895 0 1.57894737-.7073684 1.57894737-1.5789474"/></g></svg>