<svg height="44" viewBox="0 0 44 44" width="44" xmlns="http://www.w3.org/2000/svg"><g fill="none" fill-rule="evenodd"><path d="m11.5374834 0h20.9250332c4.0118343 0 5.4666224.41771525 6.9332891 1.20209717 1.4666666.78438191 2.6177152 1.9354305 3.4020971 3.40209716.7843819 1.46666667 1.2020972 2.92145474 1.2020972 6.93328907v20.9250332c0 4.0118343-.4177153 5.4666224-1.2020972 6.9332891-.7843819 1.4666666-1.9354305 2.6177152-3.4020971 3.4020971-1.4666667.7843819-2.9214548 1.2020972-6.9332891 1.2020972h-20.9250332c-4.01183433 0-5.4666224-.4177153-6.93328907-1.2020972-1.46666666-.7843819-2.61771525-1.9354305-3.40209716-3.4020971-.78438192-1.4666667-1.20209717-2.9214548-1.20209717-6.9332891v-20.9250332c0-4.01183433.41771525-5.4666224 1.20209717-6.93328907.78438191-1.46666666 1.9354305-2.61771525 3.40209716-3.40209716 1.46666667-.78438192 2.92145474-1.20209717 6.93328907-1.20209717z" fill="#fff"/><g fill="#1e2657"><rect height="2" rx="1" width="20" x="12" y="16"/><rect height="2" rx="1" width="20" x="12" y="26"/></g></g></svg>