<svg height="26" viewBox="0 0 26 26" width="26" xmlns="http://www.w3.org/2000/svg"><g style="fill:none;fill-rule:evenodd;stroke:#1e2657;stroke-linecap:round;stroke-linejoin:round;stroke-width:1.579" transform="translate(1 1)"><path d="m8.84210526 8.84210526c0-1.74421052 1.41473684-3.15789473 3.15894734-3.15684269 1.7442106 0 3.1578948 1.41473743 3.1568427 3.15894796 0 1.33789477-.8442111 2.53052627-2.1052637 2.97684207-.631579.2231579-1.0526316.82-1.0526316 1.4894737v1.0589474m0 3.1568421c-.2178947 0-.3947368.1768421-.3947368.3947368 0 .2178948.1768421.3947369.3947368.3947369s.3947368-.1768421.3947368-.3947369c0-.2178947-.1768421-.3947368-.3947368-.3947368z"/><path d="m12 .15789474c6.54 0 11.8421053 5.30210526 11.8421053 11.84210526s-5.3021053 11.8421053-11.8421053 11.8421053-11.84210526-5.3021053-11.84210526-11.8421053 5.30210526-11.84210526 11.84210526-11.84210526z"/></g></svg>