<svg height="84" viewBox="0 0 70 84" width="70" xmlns="http://www.w3.org/2000/svg"><g fill="none" fill-rule="evenodd"><path d="m2.6868186 79.734375v-5.7240918h6.0161373v5.7240918h2.7062883v-13.8040173h-2.7062883v5.5488645h-6.0161373v-5.5488645h-2.6868186v13.8040173zm13.3043202-11.1561381c.8956062 0 1.5965154-.7009092 1.5965154-1.5770457 0-.8956062-.7009092-1.6159851-1.5965154-1.6159851-.8761365 0-1.5965154.7203789-1.5965154 1.6159851 0 .8761365.7203789 1.5770457 1.5965154 1.5770457zm-1.6938639 15.1474266c1.8496215 0 2.9983338-1.3044699 2.9983338-3.1540914v-10.4162895h-2.5894701v10.1631834c0 .7009092-.2920455 1.1292426-1.0708335 1.1292426-.3699243 0-.6230304-.0584091-.7982577-.0973485v2.1611367c.1362879.0584091.7009092.2141667 1.4602275.2141667zm7.8528042-14.8553811c.7593183 0 1.3823487-.6035607 1.3823487-1.362879s-.6230304-1.3823487-1.3823487-1.3823487-1.362879.6230304-1.362879 1.3823487.6035607 1.362879 1.362879 1.362879zm4.088637 0c.7593183 0 1.3823487-.6035607 1.3823487-1.362879s-.6230304-1.3823487-1.3823487-1.3823487c-.778788 0-1.362879.6230304-1.362879 1.3823487s.584091 1.362879 1.362879 1.362879zm-3.1346217 11.1366684c1.4212881 0 2.336364-.6619698 2.8231065-1.4212881 0 .3699243.0389394.8956062.0973485 1.1487123h2.3753034c-.0584091-.3309849-.1168182-1.0124244-.1168182-1.5186366v-4.7116674c0-1.9275003-1.1292426-3.6408339-4.1665158-3.6408339-2.5700004 0-3.9523491 1.6549245-4.1081067 3.1540914l2.2974246.4867425c.0778788-.8371971.7009092-1.557576 1.8301518-1.557576 1.0903032 0 1.6159851.5646213 1.6159851 1.2460608 0 .3309849-.1752273.6035607-.7203789.6814395l-2.3558337.3504546c-1.5965154.2336364-2.8620459 1.1876517-2.8620459 2.9009853 0 1.4991669 1.2460608 2.8815156 3.2903793 2.8815156zm.5451516-1.9275003c-.8371971 0-1.2460608-.5451516-1.2460608-1.1097729 0-.7398486.5256819-1.1097729 1.1876517-1.2071214l2.1611367-.3309849v.4283334c0 1.6938639-1.0124244 2.2195458-2.1027276 2.2195458zm10.1696985 1.6549245v-14.0960628h-2.5894701v14.0960628zm5.6916675 3.699243v-4.6337886c.4672728.6425001 1.4407578 1.168182 2.7646974 1.168182 2.7062883 0 4.5169704-2.141667 4.5169704-5.0426523 0-2.8425762-1.6159851-4.9842432-4.4196219-4.9842432-1.4407578 0-2.5115913.6425001-2.9399247 1.3823487v-1.168182h-2.5115913v13.2783354zm2.3558337-5.7825009c-1.3239396 0-2.3947731-1.0124244-2.3947731-2.7062883s1.0708335-2.6868186 2.3947731-2.6868186 2.3753034.9929547 2.3753034 2.6868186c0 1.7133336-1.0513638 2.7062883-2.3753034 2.7062883zm11.5325775 2.3753034c2.3558337 0 3.8744703-1.3823487 4.3612128-3.0372732l-2.1611367-.6425001c-.3115152.8566668-.973485 1.4602275-2.1806064 1.4602275-1.2850002 0-2.3558337-.9150759-2.4142428-2.1806064h6.8533344c0-.0389394.0389394-.4283334.0389394-.7982577 0-3.0762126-1.7717427-4.9647735-4.7311371-4.9647735-2.4531822 0-4.7116674 1.9859094-4.7116674 5.0426523 0 3.2319702 2.3168943 5.1205311 4.9453038 5.1205311zm1.94697-6.1718949h-4.283334c.0584091-.8761365.7982577-1.8885609 2.141667-1.8885609 1.4796972 0 2.1027276.9345456 2.141667 1.8885609zm7.5218193 5.8798494v-5.5099251c0-1.1097729.6619698-1.9859094 1.7912124-1.9859094 1.2460608 0 1.7717427.8371971 1.7717427 1.9080306v5.5878039h2.5894701v-6.035607c0-2.1027276-1.0903032-3.7965915-3.4656066-3.7965915-1.0318941 0-2.1806064.4478031-2.7646974 1.4407578v-1.1876517h-2.5115913v9.5790924z" fill="#1e2657" fill-rule="nonzero"/><path d="m4.982 49.359h58.219v4.641h-58.219z" fill="#f5c932"/><path d="m29.1509894 39.65625v-14.934018h7.1007153c7.8275603 0 13.0272967-5.1458039 13.0272967-12.361116 0-7.1593794-5.1997364-12.361116-13.0272967-12.361116h-14.8164533v39.65625zm6.1502259-21.5900035h-6.0943148v-11.35432831h6.0943148c3.8578689 0 6.206137 2.18137342 6.206137 5.70513051 0 3.4118917-2.3482681 5.6491978-6.206137 5.6491978z" fill="#1e2657" fill-rule="nonzero"/></g></svg>