<svg height="199" viewBox="0 0 164 199" width="164" xmlns="http://www.w3.org/2000/svg"><g fill="none" fill-rule="evenodd" transform="translate(.19)"><path d="m6.3687552 189v-13.568218h14.2604736v13.568218h6.4149056v-32.720634h-6.4149056v13.152864h-14.2604736v-13.152864h-6.3687552v32.720634zm31.5361664-26.444179c2.1229184 0 3.7843328-1.661415 3.7843328-3.738183 0-2.122918-1.6614144-3.830483-3.7843328-3.830483-2.076768 0-3.7843328 1.707565-3.7843328 3.830483 0 2.076768 1.7075648 3.738183 3.7843328 3.738183zm-4.0150848 35.905011c4.384288 0 7.1071616-3.092077 7.1071616-7.476365v-24.690464h-6.1380032v24.090509c0 1.661414-.692256 2.676723-2.538272 2.676723-.8768576 0-1.4768128-.138451-1.8921664-.230752v5.122695c.3230528.138451 1.6614144.507654 3.46128.507654zm18.6140544-35.212755c1.7998656 0 3.2766784-1.430663 3.2766784-3.230528 0-1.799866-1.4768128-3.276679-3.2766784-3.276679s-3.230528 1.476813-3.230528 3.276679c0 1.799865 1.4306624 3.230528 3.230528 3.230528zm9.691584 0c1.7998656 0 3.2766784-1.430663 3.2766784-3.230528 0-1.799866-1.4768128-3.276679-3.2766784-3.276679-1.846016 0-3.230528 1.476813-3.230528 3.276679 0 1.799865 1.384512 3.230528 3.230528 3.230528zm-7.4302144 26.398029c3.3689792 0 5.538048-1.569114 6.691808-3.36898 0 .876858.0923008 2.122919.230752 2.722874h5.6303488c-.1384512-.784557-.2769024-2.399821-.2769024-3.599731v-11.168397c0-4.56889-2.6767232-8.630125-9.8761856-8.630125-6.0918528 0-9.3685312 3.922784-9.7377344 7.476365l5.4457472 1.15376c.1846016-1.984467 1.6614144-3.692032 4.3381376-3.692032 2.5844224 0 3.8304832 1.338362 3.8304832 2.953626 0 .784556-.4153536 1.430662-1.7075648 1.615264l-5.5841984.830707c-3.7843328.553805-6.7841088 2.815174-6.7841088 6.876409 0 3.553581 2.9536256 6.83026 7.7994176 6.83026zm1.2922112-4.56889c-1.9844672 0-2.9536256-1.292211-2.9536256-2.630573 0-1.753715 1.2460608-2.630573 2.8151744-2.861325l5.1226944-.784556v1.015308c0 4.015085-2.3998208 5.261146-4.9842432 5.261146zm24.105952 3.922784v-33.41289h-6.1380032v33.41289zm13.49136 8.768576v-10.983795c1.1076096 1.522963 3.4151296 2.769024 6.553357 2.769024 6.414905 0 10.706893-5.076544 10.706893-11.952954 0-6.737958-3.830484-11.814502-10.476141-11.814502-3.4151298 0-5.9534018 1.522963-6.9687106 3.276678v-2.769024h-5.9534016v31.474573zm5.5841984-13.706669c-3.1382272 0-5.6764992-2.399821-5.6764992-6.414905 0-4.015085 2.538272-6.368756 5.6764992-6.368756 3.1382276 0 5.6303486 2.353671 5.6303486 6.368756 0 4.061235-2.492121 6.414905-5.6303486 6.414905zm27.3364796 5.630349c5.584199 0 9.18393-3.276678 10.33769-7.199462l-5.122694-1.522964c-.738407 2.030618-2.30752 3.46128-5.168845 3.46128-3.045927 0-5.584199-2.169068-5.72265-5.168844h16.244941c0-.092301.092301-1.015309.092301-1.892167 0-7.291763-4.199687-11.768352-11.214547-11.768352-5.814951 0-11.168397 4.707341-11.168397 11.952954 0 7.660966 5.491897 12.137555 11.722201 12.137555zm4.61504-14.629677h-10.153088c.138452-2.076768 1.892167-4.476589 5.076544-4.476589 3.507431 0 4.984244 2.21522 5.076544 4.476589zm17.829498 13.937421v-13.060563c0-2.630573 1.569114-4.707341 4.245837-4.707341 2.953625 0 4.199686 1.984467 4.199686 4.522739v13.245165h6.138003v-14.306624c0-4.984243-2.584422-8.999328-8.214771-8.999328-2.445971 0-5.168845 1.061459-6.553357 3.41513v-2.815175h-5.953401v22.705997z" fill="#fff" fill-rule="nonzero"/><path d="m11.809 117h138v11h-138z" fill="#f5c932"/><path d="m69.0986414 94v-35.3991537h16.8313253c18.5542173 0 30.8795183-12.1974613 30.8795183-29.3004232 0-16.9703808-12.325301-29.3004231-30.8795183-29.3004231h-35.1204819v94zm14.5783133-51.1763047h-14.4457832v-26.9139633h14.4457832c9.1445783 0 14.7108434 5.1706629 14.7108434 13.5232722 0 8.0874471-5.5662651 13.3906911-14.7108434 13.3906911z" fill="#fff" fill-rule="nonzero"/></g></svg>