<svg height="26" viewBox="0 0 26 26" width="26" xmlns="http://www.w3.org/2000/svg"><g style="fill:none;fill-rule:evenodd;stroke:#1e2657;stroke-linecap:round;stroke-linejoin:round;stroke-width:1.579" transform="translate(1 1)"><path d="m22.1052632 20.5276468c.8715789 0 1.5789473-.7073684 1.5789473-1.5789473 0-1.011579-.4021052-1.9810527-1.1168421-2.6957895l-2.0410526-2.0410526h-17.36842106l-2.04105263 2.0410526c-.71473685.7147368-1.11684211 1.6842105-1.11684211 2.6957895 0 .8715789.70736842 1.5789473 1.57894737 1.5789473z"/><path d="m.342 17.37h4.395"/><path d="m23.342 17.37h-4.395"/><path d="m3.15789474 14.2118574 1.78947368-4.7789474c.34631579-.92526316 1.23157895-1.53789474 2.22-1.53684346h9.34947368c.9873684 0 1.8705263.61263293 2.2168421 1.53684346l1.7894737 4.7789474zm-1.57894737 6.3157894v1.5789474c0 .871579.70736842 1.5789474 1.57894737 1.5789474.87157894 0 1.57894737-.7073684 1.57894737-1.5789474v-1.5789474zm20.52631583 0v1.5789474c0 .871579-.7073685 1.5789474-1.5789474 1.5789474-.871579 0-1.5789474-.7073684-1.5789474-1.5789474v-1.5789474zm-4.7242106-15.55263154c-1.5926315-1.20526316-3.5421052-1.84421053-5.5389473-1.81578948-1.99684214-.02842105-3.94631583.61052632-5.53894741 1.81578948m13.84736841-2.25052632c-2.3894737-1.80736842-5.3126316-2.76526316-8.308421-2.72315789-2.99578951-.04210527-5.91894741.91578947-8.30842109 2.72315789"/></g></svg>