<svg height="71" viewBox="0 0 54 71" width="54" xmlns="http://www.w3.org/2000/svg"><g fill="none" fill-rule="evenodd" transform="translate(2 2)"><path d="m26.3109078 45.8820028c3.761978 0 2.5540411 7.7859303 12.0891224 11.8583637 4.7194551 2.0156794-33.92195007 4.0729608-24.3043495 0 9.6176006-4.0729608 8.453249-11.8583637 12.2152271-11.8583637z" fill="#001e39" fill-rule="nonzero" transform="matrix(-1 0 0 -1 51.352 105.968)"/><circle cx="25" cy="25" fill="#fff" fill-rule="nonzero" r="25" stroke="#001e39" stroke-width="2.5"/><g fill="#001e39"><path d="m16.25 23.75c.5405405-1.4554795 1.0472973-2.9965753 1.6891892-4.6660959.3378378-.7705479.777027-1.4982877 1.4864865-1.5839041h11.1148648c.7432433.0856164 1.1486487.8133562 1.5202703 1.5839041.6418919 1.6695206 1.1486487 3.2106164 1.6891892 4.6660959zm3.4141932-7.5c-1.1342054 0-1.8471345.4048043-2.7869047 1.6814947l-1.5878876 3.4252669h-2.4304401c-.3564646 0-1.0369878 1.8994662 1.4906699 1.9617437l-.8425526 1.9928826c0 2.4911032.0324059 5.0133452.0324059 7.5044484 0 .5293594.4212763.9341637.9721761.9341637h3.2729927c.5508998 0 .9721761-.4048043.9721761-.9341637v-2.0862989h12.4762595v2.0862989c0 .5293594.4536821.9341637.972176.9341637h3.3053986c.5508998 0 .9721761-.4048043.9721761-.9341637 0-2.4911032.0324059-5.0133452.0324059-7.5044484l-.8749585-1.9928826c2.5600636-.0622775 1.8471345-1.9617437 1.49067-1.9617437h-2.4304402l-1.5554817-3.4252669c-.9721761-1.2766904-1.6526993-1.6814947-2.8193106-1.6814947zm13.4608068 8.75c-1.0331633 0-1.875.8418367-1.875 1.875s.8418367 1.875 1.875 1.875 1.875-.8418367 1.875-1.875-.8418367-1.875-1.875-1.875zm-16.25 0c1.0331633 0 1.875.8418367 1.875 1.875s-.8418367 1.875-1.875 1.875-1.875-.8418367-1.875-1.875.8418367-1.875 1.875-1.875z"/><circle cx="25" cy="66.25" fill-rule="nonzero" r="2.5"/></g></g></svg>