<svg height="116" viewBox="0 0 368 116" width="368" xmlns="http://www.w3.org/2000/svg" xmlns:xlink="http://www.w3.org/1999/xlink"><filter id="a" height="212.1%" width="118.7%" x="-9.3%" y="-56.1%"><feGaussianBlur in="SourceGraphic" stdDeviation="9.903"/></filter><g fill="none" fill-rule="evenodd" transform="translate(2)"><rect fill="#000" filter="url(#a)" height="53" opacity=".091" rx="10" width="318" x="23" y="38"/><rect fill="#fff" height="79" rx="10" width="363"/><path d="m10 0h35v79h-35c-5.5228475 0-10-4.4771525-10-10v-59c0-5.5228475 4.4771525-10 10-10z" fill="#08f"/><rect height="77" rx="10" stroke="#000" stroke-width="2" width="361" x="1" y="1"/><text fill="#fff" font-family="MuseoSans-500, Museo Sans" font-size="20"><tspan x="17" y="62">S</tspan></text><g fill="#ffd200" transform="translate(13 16)"><path d="m2.871 4.766.357 1.1h1.156l-.935.679.357 1.1-.935-.68-.935.68.357-1.1-.935-.679h1.156z"/><path d="m6.213 1.365.357 1.1h1.156l-.935.679.358 1.099-.936-.679-.935.679.357-1.099-.935-.679h1.156z"/><path d="m10.974.082-.357 1.1h-1.156l.935.679-.357 1.099.935-.679.935.679-.357-1.099.935-.679h-1.156z"/><path d="m15.68 1.371.358 1.1h1.156l-.936.679.358 1.1-.936-.68-.935.68.357-1.1-.935-.679h1.156z"/><path d="m19.147 4.837.357 1.1h1.156l-.935.679.357 1.099-.935-.679-.935.679.357-1.099-.935-.679h1.156z"/><path d="m20.073 10.696h-1.156l.935.68-.357 1.099.935-.679.936.679-.358-1.099.935-.68h-1.156l-.357-1.099z"/><path d="m19.142 14.373.357 1.1h1.156l-.935.679.357 1.099-.935-.679-.935.679.357-1.099-.935-.679h1.156z"/><path d="m15.676 17.816.358 1.099h1.156l-.936.68.358 1.099-.936-.679-.935.679.357-1.099-.935-.68h1.156z"/><path d="m10.628 20.175h-1.156l.936.679-.358 1.1.935-.68.936.68-.358-1.1.936-.679h-1.156l-.358-1.099z"/><path d="m6.225 17.792.357 1.099h1.156l-.935.679.357 1.1-.935-.68-.936.68.358-1.1-.935-.679h1.156z"/><path d="m2.829 14.35.357 1.099h1.156l-.935.68.357 1.099-.935-.68-.936.68.358-1.099-.935-.68h1.156z"/><path d="m1.167 10.62h-1.167l.944.686-.36 1.11.944-.686.945.686-.361-1.11.944-.686h-1.167l-.361-1.111z"/></g></g></svg>