<svg height="26" viewBox="0 0 26 26" width="26" xmlns="http://www.w3.org/2000/svg"><g style="fill:none;fill-rule:evenodd;stroke:#1e2657;stroke-linecap:round;stroke-linejoin:round;stroke-width:1.579" transform="translate(1 1)"><path d="m10.4694737 1.93473684c.7610526.84526316 2.0642105.91368421 2.9094737.15157895.0536842-.04842105.1042105-.09894737.1515789-.15157895l.9957895-1.09263158c.7631579-.84526315 2.0673684-.91157894 2.9126316-.14736842.46.41578948.708421 1.01578948.6768421 1.63473684l-.0747369 1.47368421c-.0568421 1.13684211.8178948 2.10526316 1.9547369 2.16210527.068421.00315789.1357894.00315789.2042105 0l1.4736842-.07473684c1.1378947-.05578948 2.1052632.82105263 2.1610526 1.95789473.0305264.61789474-.2178947 1.21684211-.6768421 1.63157895l-1.0968421.9894737c-.8452631.7642105-.9115789 2.068421-.148421 2.9136842.0463158.0515789.0957895.1010526.148421.148421l1.0968421.9894737c.8452632.7631579.911579 2.0673685.1473685 2.9126316-.4157895.46-1.0157895.7084211-1.6347369.6768421l-1.4736842-.0747368c-1.1368421-.0589474-2.1052632.8157894-2.1642105 1.9526316-.0031579.0705263-.0031579.1410526 0 .2115789l.0747368 1.4736842c.0505263 1.1378947-.8305263 2.1010526-1.968421 2.151579-.6094737.0273684-1.2-.2168421-1.6126316-.6673685l-.9905263-1.0957894c-.7631579-.8452632-2.0673684-.911579-2.9126316-.1484211-.051579.0473684-.1021053.0968421-.1484211.1484211l-.9947368 1.0957894c-.76631579.8421053-2.07052632.9042106-2.91263158.1378948-.45368421-.4126316-.7-1.0063158-.67263158-1.62l.07578948-1.4736842c.05894736-1.1368421-.81578948-2.1052632-1.95263158-2.1642106-.07052632-.0031579-.14105263-.0031579-.21157895 0l-1.47368421.0747369c-1.13684211.0589473-2.10631579-.8136842-2.16526316-1.9505263-.03263158-.6189474.21473684-1.22.67473684-1.6357895l1.09578948-.9894737c.84526315-.7642105.91157894-2.068421.14842105-2.9136842-.04631579-.051579-.09578947-.1010526-.14842105-.1484211l-1.09578948-.9947368c-.84315789-.76526316-.90631579-2.06842105-.14210526-2.91157895.41368421-.45578947 1.01052632-.70315789 1.62526316-.67368421l1.47368421.07473684c1.1368421.06 2.10631579-.81368421 2.16631579-1.94947368.00421052-.07263158.00421052-.14526316 0-.21894737l-.07052632-1.47473684c-.05368421-1.13789474.82526316-2.10315789 1.9631579-2.15684211.61368421-.02842105 1.20842105.21789474 1.62210526.67263158z"/><path d="m12 7.26421053c2.6157895 0 4.7368421 2.12105263 4.7368421 4.73684207 0 2.6157895-2.1210526 4.7368421-4.7368421 4.7368421-2.61578947 0-4.73684211-2.1210526-4.73684211-4.7368421 0-2.61578944 2.12105264-4.73684207 4.73684211-4.73684207z"/></g></svg>