<svg height="64" viewBox="0 0 64 64" width="64" xmlns="http://www.w3.org/2000/svg"><g style="fill:none;fill-rule:evenodd;stroke:#1e2657;stroke-linecap:round;stroke-linejoin:round;stroke-width:3.947" transform="translate(2 2)"><path d="m55.2631579 51.3191171c2.1789474 0 3.9473684-1.7684211 3.9473684-3.9473684 0-2.5289474-1.0052631-4.9526316-2.7921052-6.7394737l-5.1026316-5.1026316h-43.42105266l-5.10263158 5.1026316c-1.7868421 1.7868421-2.79210526 4.2105263-2.79210526 6.7394737 0 2.1789473 1.76842105 3.9473684 3.94736842 3.9473684z"/><path d="m.855 43.424h10.987"/><path d="m58.355 43.424h-10.987"/><path d="m7.89473684 35.5296434 4.47368426-11.9473684c.8657894-2.3131579 3.0789473-3.8447369 5.55-3.8421087h23.3736842c2.468421 0 4.6763158 1.5315824 5.5421052 3.8421087l4.4736842 11.9473684zm-3.94736842 15.7894737v3.9473684c0 2.1789474 1.76842105 3.9473684 3.94736842 3.9473684 2.17894736 0 3.94736846-1.768421 3.94736846-3.9473684v-3.9473684zm51.31578948 0v3.9473684c0 2.1789474-1.7684211 3.9473684-3.9473684 3.9473684-2.1789474 0-3.9473684-1.768421-3.9473684-3.9473684v-3.9473684zm-11.8105263-38.881579c-3.981579-3.01315785-8.8552632-4.61052627-13.8473684-4.53947364-4.9921053-.07105263-9.8657895 1.52631579-13.8473685 4.53947364m34.6184211-5.62631574c-5.9736842-4.51842106-13.281579-6.9131579-20.7710526-6.80789474-7.4894737-.10526316-14.7973685 2.28947368-20.77105267 6.80789474"/></g></svg>