<svg height="26" viewBox="0 0 26 26" width="26" xmlns="http://www.w3.org/2000/svg"><g style="fill:none;fill-rule:evenodd;stroke:#1e2657;stroke-linecap:round;stroke-linejoin:round;stroke-width:1.579" transform="translate(1 1)"><path d="m8.84210526 19.1189474c1.30842104 0 2.36842104 1.06 2.36842104 2.368421 0 1.3084211-1.06 2.3684211-2.36842104 2.3684211-1.30842105 0-2.36842105-1.06-2.36842105-2.3684211 0-1.308421 1.06-2.368421 2.36842105-2.368421z"/><path d="m.158 21.487h6.316"/><path d="m11.2105263 21.4873684h2.3684211c.8715789 0 1.5789473-.7073684 1.5789473-1.5789473v-2.3684211c0-1.7442105-1.4136842-3.1578947-3.1578947-3.1578947h-3.15789474l-2.28526315-4.57052635c-.53473685-1.06947369-1.62842106-1.74526316-2.82421053-1.74526316h-3.57473684"/><path d="m.158 14.382h8.684"/><path d="m10.9757895 11.2242105c-.7463158-1.1947368-1.20631582-2.54526313-1.34421055-3.94736839 0-3.92421053 3.18105265-7.10526316 7.10526315-7.10526316s7.1052632 3.18105263 7.1052632 7.10526316c0 2.72736839-3.4326316 7.38421049-5.5263158 9.97157899"/><path d="m16.7368421 4.90842105c1.3084211 0 2.3684211 1.06 2.3684211 2.36842106 0 1.30842105-1.06 2.36842105-2.3684211 2.36842105-1.308421 0-2.368421-1.06-2.368421-2.36842105 0-1.30842106 1.06-2.36842106 2.368421-2.36842106z"/></g></svg>